<svg xmlns="http://www.w3.org/2000/svg" xmlns:xlink="http://www.w3.org/1999/xlink" width="275" height="172.219" viewBox="0 0 275 172.219">
  <defs>
    <filter id="Tracciato_54" x="22.617" y="52.687" width="112.127" height="72.527" filterUnits="userSpaceOnUse">
      <feOffset dy="3" input="SourceAlpha"/>
      <feGaussianBlur stdDeviation="1.5" result="blur"/>
      <feFlood flood-opacity="0.349"/>
      <feComposite operator="in" in2="blur"/>
      <feComposite in="SourceGraphic"/>
    </filter>
    <filter id="Tracciato_14" x="82.102" y="13.333" width="112.127" height="72.527" filterUnits="userSpaceOnUse">
      <feOffset dy="3" input="SourceAlpha"/>
      <feGaussianBlur stdDeviation="1.5" result="blur-2"/>
      <feFlood flood-opacity="0.349"/>
      <feComposite operator="in" in2="blur-2"/>
      <feComposite in="SourceGraphic"/>
    </filter>
    <filter id="Tracciato_55" x="82.102" y="91.594" width="112.127" height="72.527" filterUnits="userSpaceOnUse">
      <feOffset dy="3" input="SourceAlpha"/>
      <feGaussianBlur stdDeviation="1.5" result="blur-3"/>
      <feFlood flood-opacity="0.349"/>
      <feComposite operator="in" in2="blur-3"/>
      <feComposite in="SourceGraphic"/>
    </filter>
    <filter id="Tracciato_56" x="142.035" y="52.687" width="112.127" height="72.527" filterUnits="userSpaceOnUse">
      <feOffset dy="3" input="SourceAlpha"/>
      <feGaussianBlur stdDeviation="1.5" result="blur-4"/>
      <feFlood flood-opacity="0.349"/>
      <feComposite operator="in" in2="blur-4"/>
      <feComposite in="SourceGraphic"/>
    </filter>
  </defs>
  <g id="Raggruppa_56" data-name="Raggruppa 56" transform="translate(-142 -1850.272)">
    <path id="Tracciato_53" data-name="Tracciato 53" d="M2580.007,3418.344l137.365-85.4,137.635,85.4-137.635,86.819Z" transform="translate(-2438.007 -1482.673)" fill="#fff"/>
    <g transform="matrix(1, 0, 0, 1, 142, 1850.27)" filter="url(#Tracciato_54)">
      <path id="Tracciato_54-2" data-name="Tracciato 54" d="M646.369,1392.987l-51.563,31.54-51.564-31.54L594.805,1361Z" transform="translate(-516.13 -1306.81)" fill="#4c1659"/>
    </g>
    <g id="Componente_4_6" data-name="Componente 4 – 6" transform="translate(228.602 1865.106)" opacity="0.201">
      <g transform="matrix(1, 0, 0, 1, -86.6, -14.83)" filter="url(#Tracciato_14)">
        <path id="Tracciato_14-2" data-name="Tracciato 14" d="M768.369,1315.987l-51.563,31.54-51.564-31.54L716.805,1284Z" transform="translate(-578.64 -1269.17)" fill="#6c1f7f"/>
      </g>
    </g>
    <g transform="matrix(1, 0, 0, 1, 142, 1850.27)" filter="url(#Tracciato_55)">
      <path id="Tracciato_55-2" data-name="Tracciato 55" d="M768.369,1468.987l-51.563,31.54-51.564-31.54L716.805,1437Z" transform="translate(-578.64 -1343.91)" fill="#c338e5" opacity="0.201"/>
    </g>
    <g transform="matrix(1, 0, 0, 1, 142, 1850.27)" filter="url(#Tracciato_56)">
      <path id="Tracciato_56-2" data-name="Tracciato 56" d="M891.369,1392.987l-51.564,31.54-51.563-31.54L839.805,1361Z" transform="translate(-641.71 -1306.81)" fill="#993eaf" opacity="0.201"/>
    </g>
    <text id="Enhancement" transform="translate(221 1941.29)" fill="#fff" font-size="10" font-family="Roboto-Medium, Roboto" font-weight="500"><tspan x="-36.66" y="0">ENHANCEMENT</tspan></text>
    <text id="Adaptive" transform="translate(281 1979.29)" fill="#fff" font-size="10" font-family="Roboto-Medium, Roboto" font-weight="500"><tspan x="-23.574" y="0">ADAPTIVE</tspan></text>
    <text id="Mission" transform="translate(279 1901.29)" fill="#fff" font-size="10" font-family="Roboto-Medium, Roboto" font-weight="500"><tspan x="-20.237" y="0">MISSION</tspan></text>
    <text id="Anticipatory" transform="translate(341 1939.29)" fill="#fff" font-size="10" font-family="Roboto-Medium, Roboto" font-weight="500"><tspan x="-34.192" y="0">ANTICIPATORY</tspan></text>
  </g>
</svg>
